<?xml version="1.0" encoding="UTF-8"?>
<!DOCTYPE svg PUBLIC "-//W3C//DTD SVG 1.1//EN" "http://www.w3.org/Graphics/SVG/1.1/DTD/svg11.dtd">
<!-- Creator: CorelDRAW -->
<svg xmlns="http://www.w3.org/2000/svg" xml:space="preserve" width="42.3333mm" height="10.16mm" version="1.1" style="shape-rendering:geometricPrecision; text-rendering:geometricPrecision; image-rendering:optimizeQuality; fill-rule:evenodd; clip-rule:evenodd"
viewBox="0 0 210.82 50.6"
 xmlns:xlink="http://www.w3.org/1999/xlink"
 xmlns:xodm="http://www.corel.com/coreldraw/odm/2003">
 <defs>
  <style type="text/css">
   <![CDATA[
    .fil0 {fill:#F2562B}
    .fil1 {fill:#171717;fill-rule:nonzero}
   ]]>
  </style>
 </defs>
 <g id="Слой_x0020_1">
  <metadata id="CorelCorpID_0Corel-Layer"/>
  <g id="_3080840657264">
   <rect class="fil0" x="-0" width="210.82" height="50.6" rx="52.05" ry="21.08"/>
   <path class="fil1" d="M26.18 19.83c0,0 0,16.64 0,16.64 0,0 4.14,0 4.14,0 0,0 0,-6.73 0,-6.73 0,0 -0.02,-0.81 -0.02,-0.81 0,-2.33 0.23,-3.88 0.67,-4.68 0.44,-0.79 0.98,-1.19 1.62,-1.19 0.32,0 0.72,0.12 1.21,0.37 0,0 1.3,-3.6 1.3,-3.6 -0.6,-0.29 -1.16,-0.43 -1.7,-0.43 -0.77,0 -1.47,0.21 -2.11,0.65 -0.64,0.43 -1.16,1.05 -1.54,1.88 0,0 0,-2.1 0,-2.1 0,0 -3.57,0 -3.57,0zm25.33 7.97c1.51,-1.74 0.77,-4.97 -0.12,-5.89 -1.64,-1.66 -3.78,-2.51 -6.39,-2.51 -2.46,0 -4.51,0.85 -6.14,2.51 -1.64,1.68 -2.46,3.79 -2.46,6.33 0,2.47 0.82,4.54 2.46,6.17 1.63,1.65 3.76,2.48 6.37,2.48 1.69,0 3.14,-0.31 4.36,-0.9 1.23,-0.6 2.28,-1.51 3.15,-2.75 0,0 -3.52,-1.65 -3.52,-1.65 -1.12,1.09 -2.46,1.64 -4.02,1.64 -1.3,0 -2.37,-0.35 -3.21,-1.05 -0.84,-0.69 -1.36,-1.64 -1.56,-2.81 0,0 2.17,0 4.75,0 1.76,0 5.06,-0.09 6.33,-1.56zm-6.28 -1.73c-2.29,0 -4.62,0 -4.62,0 0.48,-1.02 0.98,-1.74 1.53,-2.15 0.87,-0.66 1.9,-0.98 3.06,-0.98 1.07,0 2.02,0.29 2.83,0.87 0.46,0.34 0.7,1.41 -0.04,1.94 -0.54,0.39 -1.82,0.32 -2.75,0.32zm11.99 -6.24c0,0 0,16.64 0,16.64 0,0 4.16,0 4.16,0 0,0 0,-6.68 0,-6.68 0,-1.73 0.06,-2.86 0.18,-3.38 0.23,-0.99 0.66,-1.79 1.27,-2.35 0.6,-0.56 1.33,-0.84 2.18,-0.84 0.65,0 1.21,0.17 1.65,0.51 0.44,0.35 0.75,0.84 0.93,1.5 0.17,0.66 0.26,1.97 0.26,3.96 0,0 0,7.29 0,7.29 0,0 4.13,0 4.13,0 0,0 0,-10.99 0,-10.99 0,-1.92 -0.49,-3.37 -1.45,-4.34 -1.15,-1.15 -2.55,-1.73 -4.21,-1.73 -0.81,0 -1.59,0.16 -2.35,0.46 -0.78,0.32 -1.63,0.87 -2.58,1.67 0,0 0,-1.7 0,-1.7 0,0 -4.16,0 -4.16,0zm19.3 -6.13c0,0 0,6.13 0,6.13 0,0 -2.14,0 -2.14,0 0,0 0,3.6 0,3.6 0,0 2.14,0 2.14,0 0,0 0,13.04 0,13.04 0,0 4.16,0 4.16,0 0,0 0,-13.04 0,-13.04 0,0 2.47,0 2.47,0 0,0 0,-3.6 0,-3.6 0,0 -2.47,0 -2.47,0 0,0 0,-6.13 0,-6.13 0,0 -4.16,0 -4.16,0zm31.98 14.09c1.51,-1.74 0.77,-4.97 -0.12,-5.89 -1.64,-1.66 -3.78,-2.51 -6.39,-2.51 -2.46,0 -4.51,0.85 -6.14,2.51 -1.64,1.68 -2.46,3.79 -2.46,6.33 0,2.47 0.82,4.54 2.46,6.17 1.63,1.65 3.76,2.48 6.37,2.48 1.69,0 3.14,-0.31 4.36,-0.9 1.23,-0.6 2.28,-1.51 3.15,-2.75 0,0 -3.52,-1.65 -3.52,-1.65 -1.12,1.09 -2.46,1.64 -4.02,1.64 -1.3,0 -2.37,-0.35 -3.21,-1.05 -0.84,-0.69 -1.36,-1.64 -1.56,-2.81 0,0 2.17,0 4.75,0 1.76,0 5.06,-0.09 6.33,-1.56zm-6.28 -1.73c-2.29,0 -4.62,0 -4.62,0 0.48,-1.02 0.98,-1.74 1.53,-2.15 0.87,-0.66 1.9,-0.98 3.06,-0.98 1.07,0 2.02,0.29 2.83,0.87 0.46,0.34 0.7,1.41 -0.04,1.94 -0.54,0.39 -1.82,0.32 -2.75,0.32zm10.2 -6.24c0,0 7.09,16.64 7.09,16.64 0,0 2.7,0 2.7,0 0,0 7.08,-16.64 7.08,-16.64 0,0 -4.24,0 -4.24,0 0,0 -4.19,9.82 -4.19,9.82 0,0 -4.21,-9.82 -4.21,-9.82 0,0 -4.25,0 -4.25,0zm33.66 7.97c1.51,-1.74 0.77,-4.97 -0.12,-5.89 -1.64,-1.66 -3.78,-2.51 -6.39,-2.51 -2.46,0 -4.51,0.85 -6.14,2.51 -1.64,1.68 -2.46,3.79 -2.46,6.33 0,2.47 0.82,4.54 2.46,6.17 1.63,1.65 3.76,2.48 6.37,2.48 1.69,0 3.14,-0.31 4.36,-0.9 1.23,-0.6 2.28,-1.51 3.15,-2.75 0,0 -3.52,-1.65 -3.52,-1.65 -1.12,1.09 -2.46,1.64 -4.02,1.64 -1.3,0 -2.37,-0.35 -3.21,-1.05 -0.84,-0.69 -1.36,-1.64 -1.56,-2.81 0,0 2.17,0 4.75,0 1.76,0 5.06,-0.09 6.33,-1.56zm-6.28 -1.73c-2.29,0 -4.62,0 -4.62,0 0.48,-1.02 0.98,-1.74 1.53,-2.15 0.87,-0.66 1.9,-0.98 3.06,-0.98 1.07,0 2.02,0.29 2.83,0.87 0.46,0.34 0.7,1.41 -0.04,1.94 -0.54,0.39 -1.82,0.32 -2.76,0.32zm11.99 -6.24c0,0 0,16.64 0,16.64 0,0 4.16,0 4.16,0 0,0 0,-6.68 0,-6.68 0,-1.73 0.06,-2.86 0.18,-3.38 0.23,-0.99 0.66,-1.79 1.27,-2.35 0.6,-0.56 1.33,-0.84 2.18,-0.84 0.65,0 1.21,0.17 1.65,0.51 0.44,0.35 0.75,0.84 0.93,1.5 0.17,0.66 0.26,1.97 0.26,3.96 0,0 0,7.29 0,7.29 0,0 4.13,0 4.13,0 0,0 0,-10.99 0,-10.99 0,-1.92 -0.49,-3.37 -1.45,-4.34 -1.15,-1.15 -2.55,-1.73 -4.21,-1.73 -0.81,0 -1.59,0.16 -2.35,0.46 -0.78,0.32 -1.63,0.87 -2.58,1.67 0,0 0,-1.7 0,-1.7 0,0 -4.16,0 -4.16,0zm19.3 -6.13c0,0 0,6.13 0,6.13 0,0 -2.14,0 -2.14,0 0,0 0,3.6 0,3.6 0,0 2.14,0 2.14,0 0,0 0,13.04 0,13.04 0,0 4.16,0 4.16,0 0,0 0,-13.04 0,-13.04 0,0 2.47,0 2.47,0 0,0 0,-3.6 0,-3.6 0,0 -2.47,0 -2.47,0 0,0 0,-6.13 0,-6.13 0,0 -4.16,0 -4.16,0zm12.86 19.09c-0.47,-0.46 -1.04,-0.69 -1.7,-0.69 -0.66,0 -1.23,0.23 -1.7,0.69 -0.47,0.48 -0.7,1.04 -0.7,1.7 0,0.66 0.23,1.22 0.7,1.7 0.47,0.48 1.04,0.7 1.7,0.7 0.66,0 1.22,-0.23 1.7,-0.7 0.48,-0.47 0.7,-1.04 0.7,-1.7 0,-0.66 -0.23,-1.22 -0.7,-1.7z"/>
  </g>
 </g>
</svg>
